# xmcd
#
# Track frame offsets:
#	150
#	11830
#	25293
#	38229
#	55796
#	67125
#	78805
#	87617
#	101400
#	114937
#	126967
#	142873
#	157847
#	169046
#	183670
#	197623
#	205835
#	223676
#	239370
#	249776
#	262818
#	278925
#	292373
#	310072
#	322004
#
# Disc length: 4526 seconds
#
# Revision: 1
# Processed by: cddbd v1.4PL0 Copyright (c) Steve Scherf et al.
# Submitted via: audiograbber 1.80
#
DISCID=6611ac19
DTITLE=Juan Gabriel - 25 Exitos Rancheras
DYEAR=1900
DGENRE=
TTITLE0=No Vale la Pena
TTITLE1=La Farsante
TTITLE2=Te Sigo Amando
TTITLE3=Caray
TTITLE4=Todo
TTITLE5=Ya No Quiero Volver
TTITLE6=Ases y Tercia de Reyes
TTITLE7=Lagrimas y LLuvia
TTITLE8=Se Me Olvido Otra Vez
TTITLE9=Esta Noche Voy a Verla
TTITLE10=La Muerte del Palomo
TTITLE11=Estoy enamorado de Ti
TTITLE12=Que Chasco Me Lleve
TTITLE13=Que sea Mi Condena
TTITLE14=Si Dios Me Ayuda
TTITLE15=Donde Andara
TTITLE16=Mañana Te Acordaras
TTITLE17=Te Voy a Olvidar
TTITLE18=Ya no Vuelvo a Molestarte
TTITLE19=Nos Vemos Mañana
TTITLE20=Siempre Estoy Pensando en Ti
TTITLE21=Ya no Insistas Corazón
TTITLE22=Mis Ojos Tristes
TTITLE23=Con un Poco de Amor
TTITLE24=Con Todo y mi Tristeza
EXTD=Enviado por Erik
EXTT0=
EXTT1=
EXTT2=
EXTT3=
EXTT4=
EXTT5=
EXTT6=
EXTT7=
EXTT8=
EXTT9=
EXTT10=
EXTT11=
EXTT12=
EXTT13=
EXTT14=
EXTT15=
EXTT16=
EXTT17=
EXTT18=
EXTT19=
EXTT20=
EXTT21=
EXTT22=
EXTT23=
EXTT24=
PLAYORDER=
